<svg width="26" height="26" viewBox="0 0 26 26" fill="none" xmlns="http://www.w3.org/2000/svg">
<path d="M13 1C3.82353 1 1 3.19608 1 10.3333C1 15.3177 2.37707 17.8923 6.33333 18.9919V25L11.6832 19.6502C12.1068 19.6613 12.5456 19.6667 13 19.6667C22.1765 19.6667 25 17.4706 25 10.3333C25 3.19608 22.1765 1 13 1Z" fill="white"/>
<path d="M18.3333 10.3333H18.3467M13 10.3333H13.0133M7.66667 10.3333H7.68M1 10.3333C1 3.19608 3.82353 1 13 1C22.1765 1 25 3.19608 25 10.3333C25 17.4706 22.1765 19.6667 13 19.6667C12.5456 19.6667 12.1068 19.6613 11.6832 19.6502L6.33333 25V18.9919C2.37707 17.8923 1 15.3177 1 10.3333Z" stroke="#FF4200" stroke-width="1.5" stroke-linecap="round" stroke-linejoin="round"/>
</svg>
