<svg width="24" height="26" viewBox="0 0 24 26" fill="none" xmlns="http://www.w3.org/2000/svg">
<path d="M20.6667 10.1799C20.6667 10.1799 21.3334 12.4814 21.3334 16.3333C21.3334 20.1851 20.8149 23.5555 20.2963 24.037C19.7778 24.5184 16.1482 24.9999 12 24.9999C7.85189 24.9999 4.22226 24.5184 3.70374 24.037C3.18523 23.5555 2.66671 20.1851 2.66671 16.3333C2.66671 12.4814 3.33337 10.1799 3.33337 10.1799M20.6667 10.1799C21.0765 10.1577 21.3572 10.1343 21.4815 10.111C22.0741 9.99992 22.6667 9.22214 22.6667 8.33325C22.6667 7.44436 22.0741 6.66658 21.4815 6.55547C20.8889 6.44436 16.7408 6.33325 12 6.33325C7.2593 6.33325 3.11115 6.44436 2.51856 6.55547C1.92597 6.66658 1.33337 7.44436 1.33337 8.33325C1.33337 9.22214 1.92597 9.99992 2.51856 10.111C2.64285 10.1343 2.92357 10.1577 3.33337 10.1799M20.6667 10.1799C19.1227 10.2639 15.7464 10.3333 12 10.3333C8.25366 10.3333 4.87735 10.2639 3.33337 10.1799M11.8212 6.13321C12.5534 3.40134 16.7494 -1.33094 18.7494 2.13321C20.7496 5.59753 14.5534 6.86543 11.8212 6.13321ZM12.0831 6.13321C11.351 3.40134 7.15496 -1.33094 5.15493 2.13321C3.1548 5.59753 9.35098 6.86543 12.0831 6.13321Z" stroke="#FF4200" stroke-width="1.5" stroke-linecap="round" stroke-linejoin="round"/>
</svg>
