<svg width="26" height="26" viewBox="0 0 26 26" fill="none" xmlns="http://www.w3.org/2000/svg">
<path d="M22.2592 9.24984L16.9259 3.9165M22.2592 9.24984L15.5946 15.9144C14.7164 16.7926 13.6504 17.486 12.4265 17.6971C11.1908 17.9102 9.65721 17.9812 8.92588 17.2498C8.19456 16.5185 8.26549 14.985 8.47862 13.7492C8.68971 12.5253 9.38309 11.4593 10.2613 10.5811L16.9259 3.9165M22.2592 9.24984C22.2592 9.24984 26.2592 5.24984 23.5926 2.58317C20.9259 -0.0834965 16.9259 3.9165 16.9259 3.9165M24.3333 12.9998C24.3333 21.6665 21.6666 24.3332 13 24.3332C4.33329 24.3332 1.66663 21.6665 1.66663 12.9998C1.66663 4.33317 4.33329 1.6665 13 1.6665" stroke="#1A0700" stroke-opacity="0.3" stroke-width="1.5" stroke-linecap="round" stroke-linejoin="round"/>
</svg>
