<svg width="24" height="23" viewBox="0 0 24 23" fill="none" xmlns="http://www.w3.org/2000/svg">
<path d="M12.6369 19.2394C12.236 19.0362 11.764 19.0362 11.3631 19.2394L6.22429 21.8439C5.13595 22.3955 3.91053 21.3991 4.20565 20.2025L5.4072 15.3306C5.52208 14.8648 5.40099 14.3715 5.08412 14.0146L1.11769 9.54728C0.327061 8.65679 0.888687 7.23394 2.06708 7.14205L7.60033 6.7106C8.11792 6.67024 8.57285 6.34761 8.78767 5.86856L10.7034 1.59629C11.2094 0.467904 12.7906 0.467902 13.2966 1.59629L15.2123 5.86856C15.4271 6.34761 15.8821 6.67024 16.3997 6.7106L21.9329 7.14205C23.1113 7.23394 23.6729 8.65679 22.8823 9.54728L18.9159 14.0146C18.599 14.3715 18.4779 14.8648 18.5928 15.3306L19.7944 20.2025C20.0895 21.3991 18.864 22.3955 17.7757 21.8439L12.6369 19.2394Z" fill="#FFE8E0" stroke="#FF4200" stroke-width="1.5" stroke-linecap="round" stroke-linejoin="round"/>
</svg>
