<svg width="20" height="16" viewBox="0 0 20 16" fill="none" xmlns="http://www.w3.org/2000/svg">
<path d="M10 1C6.24261 1 3.43602 3.4404 1.76737 5.43934C0.515206 6.93936 0.515206 9.06064 1.76737 10.5607C3.43602 12.5596 6.24261 15 10 15C13.7574 15 16.564 12.5596 18.2326 10.5607C19.4848 9.06064 19.4848 6.93936 18.2326 5.43934C16.564 3.4404 13.7574 1 10 1Z" stroke="#FF4200" stroke-width="1.5" stroke-linecap="round" stroke-linejoin="round"/>
<path d="M10 11C11.6569 11 13 9.65685 13 8C13 6.34315 11.6569 5 10 5C8.34315 5 7 6.34315 7 8C7 9.65685 8.34315 11 10 11Z" stroke="#FF4200" stroke-width="1.5" stroke-linecap="round" stroke-linejoin="round"/>
</svg>
